<?xml version="1.0" encoding="UTF-8" standalone="no"?>
<svg
   xmlns:dc="http://purl.org/dc/elements/1.1/"
   xmlns:cc="http://creativecommons.org/ns#"
   xmlns:rdf="http://www.w3.org/1999/02/22-rdf-syntax-ns#"
   xmlns:svg="http://www.w3.org/2000/svg"
   xmlns="http://www.w3.org/2000/svg"
   viewBox="0 0 1146.5973 1149.5933"
   height="1149.5933"
   width="1146.5973"
   xml:space="preserve"
   id="svg2"
   version="1.1"><metadata
     id="metadata8"><rdf:RDF><cc:Work
         rdf:about=""><dc:format>image/svg+xml</dc:format><dc:type
           rdf:resource="http://purl.org/dc/dcmitype/StillImage" /></cc:Work></rdf:RDF></metadata><defs
     id="defs6"><clipPath
       id="clipPath42"
       clipPathUnits="userSpaceOnUse"><path
         id="path40"
         d="M 0,862.195 H 859.948 V 0 H 0 Z" /></clipPath></defs><g
     transform="matrix(1.3333333,0,0,-1.3333333,0,1149.5933)"
     id="g10"><path
       id="path12"
       style="fill:#000014;fill-opacity:1;fill-rule:nonzero;stroke:none"
       d="M 349.232,161.2 H 510.515 V 322.475 H 349.232 Z" /><g
       transform="translate(416.3945,283.9616)"
       id="g14"><path
         id="path16"
         style="fill:#ffffff;fill-opacity:1;fill-rule:nonzero;stroke:none"
         d="M 0,0 H 26.954 L 58.846,-84.232 H 34.598 l -5.601,16.064 H -2.464 l -5.537,-16.064 h -23.895 z" /></g><path
       id="path18"
       style="fill:#000014;fill-opacity:1;fill-rule:nonzero;stroke:none"
       d="M 537.411,161.2 H 698.678 V 322.475 H 537.411 Z" /><g
       transform="translate(586.3291,283.9616)"
       id="g20"><path
         id="path22"
         style="fill:#ffffff;fill-opacity:1;fill-rule:nonzero;stroke:none"
         d="M 0,0 H 22.869 V -63.183 H 63.433 V -84.232 H 0 Z" /></g><g
       transform="translate(429.6992,261.1032)"
       id="g24"><path
         id="path26"
         style="fill:#000014;fill-opacity:1;fill-rule:nonzero;stroke:none"
         d="M 0,0 -8.67,-24.914 H 8.6 Z" /></g><path
       id="path28"
       style="fill:#000014;fill-opacity:1;fill-rule:nonzero;stroke:none"
       d="m 537.411,350.072 h 161.267 v 161.27 H 537.411 Z" /><g
       transform="translate(657.9658,388.5905)"
       id="g30"><path
         id="path32"
         style="fill:#ffffff;fill-opacity:1;fill-rule:nonzero;stroke:none"
         d="M 0,0 H -22.267 L -56.978,47.353 V 0 h -22.883 v 84.233 h 22.277 L -22.862,36.887 V 84.233 H 0 Z" /></g><path
       id="path34"
       style="fill:#000014;fill-opacity:1;fill-rule:nonzero;stroke:none"
       d="m 349.232,350.072 h 161.283 v 161.27 H 349.232 Z" /><g
       id="g36"><g
         clip-path="url(#clipPath42)"
         id="g38"><g
           transform="translate(392.5698,473.6086)"
           id="g44"><path
             id="path46"
             style="fill:#ffffff;fill-opacity:1;fill-rule:nonzero;stroke:none"
             d="m 0,0 h 22.924 v -49.213 c 0,-9.691 5.469,-14.689 14.38,-14.689 8.906,0 14.383,4.998 14.383,14.689 V 0 h 22.93 v -49.878 c 0,-22.926 -13.121,-35.928 -37.313,-35.928 C 13.112,-85.806 0,-72.804 0,-49.878 Z" /></g><path
           id="path48"
           style="fill:#000014;fill-opacity:1;fill-rule:nonzero;stroke:none"
           d="M 510.516,700.442 H 349.233 V 539.156 h 161.283 z" /><g
           transform="translate(429.8662,576.1213)"
           id="g50"><path
             id="path52"
             style="fill:#ffffff;fill-opacity:1;fill-rule:nonzero;stroke:none"
             d="m 0,0 c -26.042,0 -44.511,18.471 -44.511,43.677 0,25.229 18.469,43.682 44.511,43.682 26.058,0 44.53,-18.453 44.53,-43.682 C 44.53,18.471 26.058,0 0,0" /></g><g
           transform="translate(429.8662,641.5837)"
           id="g54"><path
             id="path56"
             style="fill:#000014;fill-opacity:1;fill-rule:nonzero;stroke:none"
             d="m 0,0 c -12.281,0 -20.759,-8.954 -20.759,-21.785 0,-12.806 8.478,-21.784 20.759,-21.784 12.271,0 20.765,8.978 20.765,21.784 C 20.765,-8.954 12.271,0 0,0" /></g><path
           id="path58"
           style="fill:#000014;fill-opacity:1;fill-rule:nonzero;stroke:none"
           d="M 161.055,539.156 H 322.339 V 700.442 H 161.055 Z" /><g
           transform="translate(244.7163,663.4802)"
           id="g60"><path
             id="path62"
             style="fill:#ffffff;fill-opacity:1;fill-rule:nonzero;stroke:none"
             d="M 0,0 C 16.542,0 31.045,-7.885 38.438,-21.36 L 18.167,-32.537 c -4.093,7.032 -10.292,10.641 -18.544,10.641 -11.73,0 -20.34,-8.955 -20.34,-21.786 0,-14.372 10.001,-21.783 20.399,-21.783 8.077,0 14.392,3.553 19.019,10.597 L 37.477,-67.992 C 29.475,-79.846 16.656,-87.359 0,-87.359 c -26.06,0 -44.482,17.988 -44.482,43.677 C -44.482,-17.991 -26.06,0 0,0" /></g><path
           id="path64"
           style="fill:#000014;fill-opacity:1;fill-rule:nonzero;stroke:none"
           d="m 161.055,350.072 h 161.284 v 161.27 H 161.055 Z" /><g
           transform="translate(193.1113,472.8234)"
           id="g66"><path
             id="path68"
             style="fill:#ffffff;fill-opacity:1;fill-rule:nonzero;stroke:none"
             d="M 0,0 H 31.703 L 48.623,-50.662 65.467,0 h 31.704 v -84.233 h -22.87 v 52.699 L 58.619,-84.233 H 38.826 L 22.858,-31.534 V -84.233 H 0 Z" /></g></g></g></g></svg>